<svg width="21" height="21" viewBox="0 0 21 21" fill="none" xmlns="http://www.w3.org/2000/svg">
<path d="M10.5033 5.78257C7.89468 5.78257 5.79058 7.88667 5.79058 10.4953C5.79058 13.1039 7.89468 15.208 10.5033 15.208C13.1119 15.208 15.216 13.1039 15.216 10.4953C15.216 7.88667 13.1119 5.78257 10.5033 5.78257ZM10.5033 13.5591C8.81753 13.5591 7.4394 12.1851 7.4394 10.4953C7.4394 8.80542 8.81343 7.4314 10.5033 7.4314C12.1931 7.4314 13.5671 8.80542 13.5671 10.4953C13.5671 12.1851 12.189 13.5591 10.5033 13.5591ZM16.508 5.58979C16.508 6.20093 16.0158 6.68901 15.4087 6.68901C14.7976 6.68901 14.3095 6.19683 14.3095 5.58979C14.3095 4.98276 14.8017 4.49058 15.4087 4.49058C16.0158 4.49058 16.508 4.98276 16.508 5.58979ZM19.6292 6.70542C19.5595 5.23296 19.2232 3.92866 18.1445 2.85405C17.0699 1.77944 15.7656 1.44312 14.2931 1.36929C12.7755 1.28315 8.2269 1.28315 6.70933 1.36929C5.24097 1.43901 3.93667 1.77534 2.85796 2.84995C1.77925 3.92456 1.44702 5.22886 1.37319 6.70132C1.28706 8.2189 1.28706 12.7675 1.37319 14.2851C1.44292 15.7576 1.77925 17.0619 2.85796 18.1365C3.93667 19.2111 5.23687 19.5474 6.70933 19.6212C8.2269 19.7074 12.7755 19.7074 14.2931 19.6212C15.7656 19.5515 17.0699 19.2152 18.1445 18.1365C19.2191 17.0619 19.5554 15.7576 19.6292 14.2851C19.7154 12.7675 19.7154 8.223 19.6292 6.70542ZM17.6687 15.9134C17.3488 16.7173 16.7294 17.3367 15.9214 17.6607C14.7115 18.1406 11.8404 18.0298 10.5033 18.0298C9.16616 18.0298 6.29097 18.1365 5.08511 17.6607C4.2812 17.3408 3.66187 16.7214 3.33784 15.9134C2.85796 14.7035 2.9687 11.8324 2.9687 10.4953C2.9687 9.15815 2.86206 6.28296 3.33784 5.0771C3.65776 4.27319 4.2771 3.65386 5.08511 3.32983C6.29507 2.84995 9.16616 2.96069 10.5033 2.96069C11.8404 2.96069 14.7156 2.85405 15.9214 3.32983C16.7253 3.64976 17.3447 4.26909 17.6687 5.0771C18.1486 6.28706 18.0378 9.15815 18.0378 10.4953C18.0378 11.8324 18.1486 14.7076 17.6687 15.9134Z" fill="white"/>
</svg>
