<svg width="21" height="21" viewBox="0 0 21 21" fill="none" xmlns="http://www.w3.org/2000/svg">
<path d="M18.375 1.3125H2.6209C1.89902 1.3125 1.3125 1.90723 1.3125 2.6373V18.3627C1.3125 19.0928 1.89902 19.6875 2.6209 19.6875H18.375C19.0969 19.6875 19.6875 19.0928 19.6875 18.3627V2.6373C19.6875 1.90723 19.0969 1.3125 18.375 1.3125ZM6.86602 17.0625H4.14258V8.29336H6.87012V17.0625H6.86602ZM5.5043 7.0957C4.63066 7.0957 3.9252 6.38613 3.9252 5.5166C3.9252 4.64707 4.63066 3.9375 5.5043 3.9375C6.37383 3.9375 7.0834 4.64707 7.0834 5.5166C7.0834 6.39023 6.37793 7.0957 5.5043 7.0957ZM17.0748 17.0625H14.3514V12.7969C14.3514 11.7797 14.3309 10.4713 12.9363 10.4713C11.5172 10.4713 11.2998 11.5787 11.2998 12.723V17.0625H8.57637V8.29336H11.1891V9.49102H11.226C11.591 8.80195 12.4811 8.07598 13.8059 8.07598C16.5621 8.07598 17.0748 9.89297 17.0748 12.2555V17.0625Z" fill="white"/>
</svg>
