<svg width="265" height="150" viewBox="0 0 265 150" fill="none" xmlns="http://www.w3.org/2000/svg">
<path d="M3.3689 113.865C2.92663 113.534 2.29994 113.625 1.96916 114.067C1.63838 114.509 1.72876 115.136 2.17103 115.467L2.76996 114.666L3.3689 113.865ZM19.8128 127.72L19.1801 128.495L19.8128 127.72ZM36.3725 133.924L36.326 134.923L36.3725 133.924ZM53.6326 129.506L53.1099 128.653L53.6326 129.506ZM59.5782 120.552L58.5783 120.535L59.5782 120.552ZM54.6376 112.82L55.4434 112.228L54.6376 112.82ZM43.4648 116.154L42.4648 116.147L43.4648 116.154ZM48.1877 123.267L48.8206 122.493L48.1877 123.267ZM65.8278 128.693L65.6391 127.711L65.8278 128.693ZM78.9517 119.791L78.2174 119.112L78.2102 119.12L78.2032 119.128L78.9517 119.791ZM96.9994 105.024C97.0134 104.472 96.5771 104.013 96.025 103.999L87.0279 103.771C86.4758 103.758 86.0169 104.194 86.0029 104.746C85.989 105.298 86.4253 105.757 86.9774 105.771L94.9748 105.973L94.7728 113.97C94.7589 114.522 95.1951 114.981 95.7472 114.995C96.2994 115.009 96.7582 114.573 96.7722 114.021L96.9994 105.024ZM2.76996 114.666L2.17103 115.467C6.47099 118.683 15.1101 125.169 19.1801 128.495L19.8128 127.72L20.4456 126.946C16.3346 123.587 7.65476 117.071 3.3689 113.865L2.76996 114.666ZM19.8128 127.72L19.1801 128.495C24.2068 132.602 30.6518 134.659 36.326 134.923L36.3725 133.924L36.419 132.925C31.1144 132.678 25.0966 130.747 20.4456 126.946L19.8128 127.72ZM36.3725 133.924L36.326 134.923C43.5335 135.259 49.3913 133.279 54.1553 130.358L53.6326 129.506L53.1099 128.653C48.644 131.391 43.1781 133.24 36.419 132.925L36.3725 133.924ZM53.6326 129.506L54.1553 130.358C59.5791 127.033 60.5374 122.902 60.578 120.569L59.5782 120.552L58.5783 120.535C58.5479 122.282 57.8725 125.733 53.1099 128.653L53.6326 129.506ZM59.5782 120.552L60.578 120.569C60.6044 119.055 59.6921 117.604 58.7258 116.327C58.2235 115.663 57.652 114.981 57.0916 114.304C56.5245 113.62 55.9615 112.933 55.4434 112.228L54.6376 112.82L53.8319 113.413C54.388 114.169 54.9846 114.896 55.5515 115.58C56.125 116.273 56.6619 116.914 57.131 117.534C58.1077 118.825 58.5915 119.778 58.5783 120.535L59.5782 120.552ZM54.6376 112.82L55.4434 112.228C54.7026 111.221 53.5378 110.652 52.4288 110.326C51.3015 109.994 50.0973 109.873 49.1104 109.855L49.0916 110.854L49.0728 111.854C49.9459 111.871 50.9608 111.979 51.8645 112.245C52.7865 112.516 53.4646 112.913 53.8319 113.413L54.6376 112.82ZM49.0916 110.854L49.1104 109.855C46.9906 109.815 45.2808 110.569 44.1221 111.8L44.8505 112.486L45.5788 113.171C46.3206 112.382 47.4723 111.824 49.0728 111.854L49.0916 110.854ZM44.8505 112.486L44.1221 111.8C42.9671 113.028 42.4754 114.632 42.4648 116.147L43.4648 116.154L44.4648 116.161C44.4725 115.048 44.8334 113.963 45.5788 113.171L44.8505 112.486ZM43.4648 116.154L42.4648 116.147C42.4539 117.715 43.1007 119.165 44.0294 120.456C44.9586 121.748 46.2183 122.949 47.5547 124.042L48.1877 123.267L48.8206 122.493C47.548 121.453 46.4374 120.379 45.653 119.288C44.8681 118.197 44.4579 117.157 44.4648 116.161L43.4648 116.154ZM48.1877 123.267L47.5547 124.042C50.8964 126.774 54.9183 128.286 58.3532 129.066C61.7564 129.838 64.7285 129.923 66.0165 129.675L65.8278 128.693L65.6391 127.711C64.7371 127.884 62.0733 127.859 58.7959 127.115C55.5503 126.379 51.8471 124.968 48.8206 122.493L48.1877 123.267ZM65.8278 128.693L66.0165 129.675C70.9443 128.728 75.7808 124.878 79.7002 120.454L78.9517 119.791L78.2032 119.128C74.3702 123.454 69.9043 126.891 65.6391 127.711L65.8278 128.693ZM78.9517 119.791L79.6859 120.47C81.4965 118.511 83.6272 116.826 85.8673 115.112C88.0873 113.413 90.4253 111.678 92.5335 109.674L91.8445 108.949L91.1555 108.224C89.1439 110.137 86.9106 111.795 84.6518 113.523C82.413 115.237 80.1572 117.014 78.2174 119.112L78.9517 119.791ZM91.8445 108.949L92.5335 109.674C93.4265 108.825 94.1647 108.123 94.83 107.49C95.4953 106.858 96.0876 106.295 96.6888 105.723L95.9998 104.998L95.3107 104.274C94.7095 104.845 94.1172 105.408 93.4519 106.041C92.7866 106.673 92.0484 107.375 91.1555 108.224L91.8445 108.949Z" fill="#1D4841"/>
<path d="M86.9793 53.95C86.6193 53.85 86.3293 53.76 86.1093 53.68C85.8893 53.62 85.7793 53.59 85.7793 53.59C85.8193 53.49 85.7993 53.4 85.7193 53.32C85.6593 53.24 85.5193 53.19 85.2993 53.17C84.9993 52.97 84.6893 52.69 84.3693 52.33C84.0493 51.97 83.7693 51.6 83.5293 51.22C83.2893 50.84 83.1293 50.56 83.0493 50.38C82.9093 50.08 82.9193 49.9 83.0793 49.84C83.2393 49.76 83.4293 49.67 83.6493 49.57C83.8693 49.41 84.0993 49.29 84.3393 49.21C84.5993 49.13 84.8093 49.26 84.9693 49.6C85.2293 50.06 85.6293 50.45 86.1693 50.77C86.7293 51.09 87.3593 51.28 88.0593 51.34C88.7793 51.4 89.4993 51.28 90.2193 50.98C90.6993 50.76 90.9593 50.46 90.9993 50.08C91.0393 49.68 90.8893 49.22 90.5493 48.7C90.4893 48.54 90.3993 48.41 90.2793 48.31C90.1793 48.21 90.0193 48.08 89.7993 47.92C89.5993 47.76 89.3093 47.5 88.9293 47.14C88.6293 47 88.3493 46.87 88.0893 46.75C87.8493 46.63 87.5893 46.5 87.3093 46.36C86.9893 46.2 86.6293 45.98 86.2293 45.7C85.8293 45.4 85.4593 45.08 85.1193 44.74C84.7793 44.38 84.5193 44.04 84.3393 43.72C84.0193 43.42 83.8193 43.01 83.7393 42.49C83.6593 41.95 83.6693 41.38 83.7693 40.78C83.8893 40.18 84.0793 39.64 84.3393 39.16C84.4593 38.88 84.6793 38.52 84.9993 38.08C85.3193 37.62 85.6793 37.15 86.0793 36.67C86.4793 36.19 86.8593 35.76 87.2193 35.38C87.5993 34.98 87.8993 34.71 88.1193 34.57C88.2793 34.41 88.4493 34.25 88.6293 34.09C88.8093 33.91 88.8993 33.82 88.8993 33.82C88.9193 33.72 88.9493 33.67 88.9893 33.67C89.0493 33.67 89.0793 33.67 89.0793 33.67C89.1793 33.61 89.3993 33.51 89.7393 33.37C90.0793 33.23 90.4493 32.97 90.8493 32.59C92.1893 31.95 93.3293 31.52 94.2693 31.3C95.2093 31.06 95.9493 30.94 96.4893 30.94C96.9893 30.96 97.4793 31.1 97.9593 31.36C98.4393 31.6 98.8493 31.91 99.1893 32.29C99.5493 32.67 99.7593 33.1 99.8193 33.58C99.9593 34.06 99.8893 34.64 99.6093 35.32C99.3493 35.98 98.9793 36.61 98.4993 37.21C98.0393 37.79 97.5593 38.22 97.0593 38.5C96.4993 38.74 96.0193 38.77 95.6193 38.59C95.2393 38.41 95.0593 38.13 95.0793 37.75C95.0793 37.59 95.1293 37.4 95.2293 37.18C95.3493 36.96 95.6593 36.57 96.1593 36.01C96.7993 35.07 97.1393 34.4 97.1793 34C97.2193 33.6 97.0393 33.37 96.6393 33.31C96.5193 33.27 96.2893 33.28 95.9493 33.34C95.6093 33.4 95.2393 33.48 94.8393 33.58C94.4593 33.66 94.1193 33.75 93.8193 33.85C93.5393 33.95 93.3993 34.02 93.3993 34.06C93.3993 34.06 93.3993 34.09 93.3993 34.15C93.3993 34.21 93.3593 34.23 93.2793 34.21C93.2393 34.21 93.0993 34.28 92.8593 34.42C92.6393 34.54 92.3693 34.7 92.0493 34.9C91.7293 35.1 91.4093 35.31 91.0893 35.53C90.7893 35.73 90.5293 35.91 90.3093 36.07C90.0893 36.23 89.9693 36.33 89.9493 36.37C89.9093 36.59 89.6793 36.79 89.2593 36.97C88.8593 37.21 88.5093 37.55 88.2093 37.99C87.9093 38.43 87.5593 38.99 87.1593 39.67C86.8193 40.13 86.5793 40.63 86.4393 41.17C86.2993 41.69 86.2993 42.11 86.4393 42.43C86.5393 42.75 86.8093 43.07 87.2493 43.39C87.7093 43.69 88.3293 44.07 89.1093 44.53C89.7893 44.91 90.4293 45.31 91.0293 45.73C91.6293 46.15 92.1393 46.56 92.5593 46.96C92.9793 47.34 93.2493 47.66 93.3693 47.92C93.6093 48.26 93.7493 48.65 93.7893 49.09C93.8493 49.53 93.8493 49.96 93.7893 50.38C93.7493 50.78 93.6893 51.11 93.6093 51.37C93.4693 51.69 93.2493 52.03 92.9493 52.39C92.6693 52.75 92.4093 52.92 92.1693 52.9C91.9493 52.96 91.7793 53.03 91.6593 53.11C91.5593 53.19 91.4393 53.26 91.2993 53.32C91.1593 53.4 90.8293 53.49 90.3093 53.59C89.7893 53.71 89.2193 53.8 88.5993 53.86C87.9793 53.94 87.4393 53.97 86.9793 53.95ZM97.2798 51.37C97.1998 51.21 97.0198 51.05 96.7398 50.89C96.4798 50.73 96.3498 50.61 96.3498 50.53C96.3498 50.45 96.2998 50.33 96.1998 50.17C96.1198 49.99 96.0398 49.86 95.9598 49.78C95.8598 49.66 95.8898 49.37 96.0498 48.91C96.2098 48.43 96.4498 47.85 96.7698 47.17C97.0898 46.49 97.4398 45.8 97.8198 45.1C97.9798 44.94 98.1398 44.73 98.2998 44.47C98.4598 44.21 98.5798 44.04 98.6598 43.96C98.6598 43.88 98.6898 43.81 98.7498 43.75C98.8098 43.67 98.8798 43.63 98.9598 43.63L99.1998 43.15C99.2398 43.07 99.3598 42.91 99.5598 42.67C99.7798 42.43 100.04 42.17 100.34 41.89C100.64 41.59 100.94 41.31 101.24 41.05C101.56 40.79 101.82 40.6 102.02 40.48C102.44 40.2 102.87 40.07 103.31 40.09C103.77 40.11 104.16 40.25 104.48 40.51C104.54 40.57 104.67 40.69 104.87 40.87C105.09 41.05 105.33 41.25 105.59 41.47C105.87 41.69 106.11 41.89 106.31 42.07L107.42 43.06L106.91 44.56C106.65 45.36 106.58 46.06 106.7 46.66C106.82 47.26 107.01 47.78 107.27 48.22C107.37 48.44 107.5 48.61 107.66 48.73C107.84 48.85 108.07 48.93 108.35 48.97C108.51 48.99 108.66 49.05 108.8 49.15C108.94 49.25 109.01 49.41 109.01 49.63C109.01 50.11 108.92 50.46 108.74 50.68C108.58 50.88 108.4 51 108.2 51.04C107.54 51.12 106.91 51.05 106.31 50.83C105.71 50.61 105.17 50.04 104.69 49.12C104.61 49 104.5 48.78 104.36 48.46C104.24 48.12 104.17 47.9 104.15 47.8C104.07 47.9 103.96 48.03 103.82 48.19C103.7 48.33 103.58 48.46 103.46 48.58C102.04 50.02 100.82 50.96 99.7998 51.4C98.7998 51.82 97.9598 51.81 97.2798 51.37ZM98.9298 48.88C99.0698 48.9 99.2898 48.83 99.5898 48.67C99.8898 48.49 100.29 48.2 100.79 47.8C101.47 47.22 102.03 46.74 102.47 46.36C102.91 45.98 103.34 45.49 103.76 44.89L104.42 43.81C104.22 43.35 104.04 43.05 103.88 42.91C103.72 42.77 103.56 42.7 103.4 42.7C103.14 42.7 102.83 42.87 102.47 43.21C102.11 43.53 101.7 44.01 101.24 44.65C100.8 45.27 100.3 46.05 99.7398 46.99C99.4798 47.43 99.2798 47.86 99.1398 48.28C98.9998 48.68 98.9298 48.88 98.9298 48.88ZM111.733 50.41C111.593 50.29 111.403 49.93 111.163 49.33C110.943 48.73 110.723 48.03 110.503 47.23C110.303 46.43 110.143 45.69 110.023 45.01C109.943 44.61 109.853 44.27 109.753 43.99C109.673 43.71 109.603 43.48 109.543 43.3C109.443 42.94 109.473 42.56 109.633 42.16C109.813 41.76 110.023 41.49 110.263 41.35C110.363 41.29 110.543 41.25 110.803 41.23C111.083 41.19 111.263 41.18 111.343 41.2C111.583 41.28 111.803 41.65 112.003 42.31C112.203 42.95 112.383 43.8 112.543 44.86C112.623 45.48 112.683 45.94 112.723 46.24C112.783 46.52 112.813 46.7 112.813 46.78C112.893 46.94 112.943 47.14 112.963 47.38C113.003 47.6 113.103 47.63 113.263 47.47C113.343 47.39 113.463 47.25 113.623 47.05C113.803 46.85 114.013 46.59 114.253 46.27C114.673 45.71 115.003 45.25 115.243 44.89C115.503 44.51 115.793 44.12 116.113 43.72C116.253 43.52 116.443 43.3 116.683 43.06C116.923 42.82 117.163 42.6 117.403 42.4C117.643 42.18 117.843 42.05 118.003 42.01C118.483 41.93 118.773 42.11 118.873 42.55C118.993 42.97 118.853 43.46 118.453 44.02C118.293 44.26 118.163 44.49 118.063 44.71C117.983 44.91 117.903 45.05 117.823 45.13C117.663 45.45 117.413 45.86 117.073 46.36C116.733 46.84 116.403 47.29 116.083 47.71C115.763 48.11 115.543 48.37 115.423 48.49C115.343 48.57 115.163 48.72 114.883 48.94C114.623 49.16 114.373 49.44 114.133 49.78C113.653 50.24 113.193 50.52 112.753 50.62C112.313 50.72 111.973 50.65 111.733 50.41ZM122.324 52.54C121.224 52.54 120.374 52.22 119.774 51.58C119.194 50.94 118.904 49.96 118.904 48.64C118.904 47.92 119.034 47.13 119.294 46.27C119.574 45.41 119.934 44.57 120.374 43.75C120.834 42.93 121.334 42.22 121.874 41.62C122.414 41 122.954 40.57 123.494 40.33C123.694 40.23 123.904 40.16 124.124 40.12C124.364 40.06 124.594 40.03 124.814 40.03C125.054 40.03 125.314 40.05 125.594 40.09C125.894 40.11 126.174 40.17 126.434 40.27C126.894 40.41 127.294 40.68 127.634 41.08C127.994 41.48 128.174 42.06 128.174 42.82C128.174 43.02 128.154 43.24 128.114 43.48C128.074 43.7 128.004 43.92 127.904 44.14C127.644 44.8 127.244 45.43 126.704 46.03C126.184 46.63 125.634 47.05 125.054 47.29C124.894 47.37 124.734 47.43 124.574 47.47C124.434 47.49 124.284 47.5 124.124 47.5C123.704 47.5 123.324 47.44 122.984 47.32C122.664 47.2 122.364 47.04 122.084 46.84L121.844 46.63L121.694 46.93C121.554 47.31 121.454 47.63 121.394 47.89C121.354 48.15 121.334 48.34 121.334 48.46C121.334 48.7 121.344 48.95 121.364 49.21C121.384 49.45 121.444 49.65 121.544 49.81C121.624 49.91 121.724 49.99 121.844 50.05C121.984 50.11 122.154 50.14 122.354 50.14C122.474 50.14 122.584 50.14 122.684 50.14C122.804 50.12 122.904 50.1 122.984 50.08C123.344 50 123.634 49.87 123.854 49.69C124.094 49.49 124.344 49.32 124.604 49.18L124.724 49.12L124.694 49.03C125.034 48.85 125.264 48.74 125.384 48.7C125.504 48.64 125.594 48.59 125.654 48.55C125.734 48.47 125.824 48.43 125.924 48.43C126.204 48.39 126.474 48.47 126.734 48.67C127.014 48.85 127.154 49.08 127.154 49.36C127.154 49.48 127.064 49.67 126.884 49.93C126.724 50.19 126.514 50.45 126.254 50.71C126.014 50.95 125.764 51.14 125.504 51.28C125.444 51.3 125.384 51.33 125.324 51.37C125.264 51.39 125.204 51.42 125.144 51.46H125.174C124.994 51.7 124.814 51.82 124.634 51.82H124.394C124.314 51.96 124.054 52.11 123.614 52.27C123.174 52.45 122.744 52.54 122.324 52.54ZM123.884 45.31C124.064 45.31 124.224 45.28 124.364 45.22C124.524 45.16 124.674 45.09 124.814 45.01C125.294 44.67 125.604 44.23 125.744 43.69C125.884 43.15 125.834 42.74 125.594 42.46C125.554 42.4 125.504 42.36 125.444 42.34C125.384 42.3 125.314 42.28 125.234 42.28C125.014 42.28 124.764 42.35 124.484 42.49C124.224 42.63 123.964 42.83 123.704 43.09C123.444 43.35 123.204 43.66 122.984 44.02L122.594 44.65C122.634 44.63 122.664 44.62 122.684 44.62C122.724 44.6 122.754 44.59 122.774 44.59C122.954 44.59 123.074 44.65 123.134 44.77C123.194 44.89 123.264 45.01 123.344 45.13C123.444 45.25 123.624 45.31 123.884 45.31ZM143.509 52.36C143.429 52.36 143.229 52.22 142.909 51.94C142.609 51.66 142.459 51.24 142.459 50.68C142.479 50.06 142.579 49.41 142.759 48.73C142.959 48.03 143.149 47.41 143.329 46.87C143.449 46.51 143.549 46.21 143.629 45.97C143.729 45.73 143.779 45.58 143.779 45.52C143.759 45.52 143.649 45.54 143.449 45.58C143.269 45.62 143.039 45.67 142.759 45.73C141.779 45.93 141.029 46.03 140.509 46.03C140.009 46.03 139.579 45.73 139.219 45.13C139.099 45.01 138.939 44.79 138.739 44.47C138.539 44.15 138.399 43.8 138.319 43.42C138.259 43.04 138.359 42.72 138.619 42.46C138.819 41.96 138.979 41.6 139.099 41.38C139.219 41.16 139.299 41 139.339 40.9C139.399 40.8 139.429 40.7 139.429 40.6C139.449 40.56 139.479 40.5 139.519 40.42C139.559 40.34 139.609 40.26 139.669 40.18C139.849 39.88 140.099 39.49 140.419 39.01C140.759 38.53 141.109 38.05 141.469 37.57C141.849 37.07 142.189 36.63 142.489 36.25C142.789 35.85 143.009 35.59 143.149 35.47C143.269 35.41 143.479 35.32 143.779 35.2C144.099 35.08 144.329 35.02 144.469 35.02C144.629 35.02 144.779 35.13 144.919 35.35C145.079 35.55 145.209 35.76 145.309 35.98C145.409 36.2 145.459 36.35 145.459 36.43C145.459 36.43 145.449 36.45 145.429 36.49C145.409 36.53 145.369 36.6 145.309 36.7C145.229 36.82 145.109 36.98 144.949 37.18C144.809 37.38 144.599 37.64 144.319 37.96C144.079 38.24 143.779 38.65 143.419 39.19C143.059 39.71 142.699 40.27 142.339 40.87C141.999 41.45 141.709 41.97 141.469 42.43C141.229 42.89 141.109 43.2 141.109 43.36C141.109 43.46 141.139 43.54 141.199 43.6C141.279 43.64 141.419 43.66 141.619 43.66C141.879 43.62 142.109 43.58 142.309 43.54C142.529 43.5 142.729 43.46 142.909 43.42C143.129 43.38 143.319 43.34 143.479 43.3C143.639 43.24 143.789 43.19 143.929 43.15C144.089 43.09 144.229 43.04 144.349 43C144.489 42.94 144.609 42.87 144.709 42.79C144.949 42.59 145.129 42.32 145.249 41.98C145.369 41.64 145.559 41.18 145.819 40.6C145.979 40.2 146.139 39.84 146.299 39.52C146.479 39.18 146.639 38.87 146.779 38.59C147.279 37.67 147.699 37 148.039 36.58C148.379 36.14 148.569 35.92 148.609 35.92C148.669 35.92 148.809 36 149.029 36.16C149.249 36.32 149.459 36.49 149.659 36.67C149.819 36.81 149.949 36.94 150.049 37.06C150.149 37.16 150.199 37.23 150.199 37.27C150.199 37.51 150.139 37.76 150.019 38.02C149.919 38.26 149.769 38.54 149.569 38.86C149.369 39.18 149.139 39.59 148.879 40.09C148.579 40.67 148.299 41.25 148.039 41.83C147.779 42.39 147.529 42.95 147.289 43.51C147.049 44.05 146.829 44.58 146.629 45.1C146.429 45.62 146.239 46.11 146.059 46.57C145.619 47.75 145.319 48.62 145.159 49.18C144.999 49.74 144.919 50.13 144.919 50.35C144.939 50.55 144.979 50.72 145.039 50.86C145.039 51.12 144.959 51.37 144.799 51.61C144.639 51.83 144.439 52.01 144.199 52.15C143.959 52.29 143.729 52.36 143.509 52.36ZM155.875 51.91C155.735 51.91 155.475 51.86 155.095 51.76C154.735 51.66 154.355 51.54 153.955 51.4C153.575 51.24 153.275 51.07 153.055 50.89C152.375 50.31 151.885 49.67 151.585 48.97C151.285 48.25 151.105 47.52 151.045 46.78C151.005 46.04 151.035 45.34 151.135 44.68C151.355 43.4 151.815 42.13 152.515 40.87C153.215 39.59 154.055 38.53 155.035 37.69C155.555 37.23 156.075 36.84 156.595 36.52C157.115 36.2 157.675 35.97 158.275 35.83C158.495 35.77 158.805 35.74 159.205 35.74C159.625 35.72 159.905 35.71 160.045 35.71C160.445 35.71 160.885 35.8 161.365 35.98C161.865 36.14 162.295 36.34 162.655 36.58C163.015 36.8 163.195 37.01 163.195 37.21C163.195 37.35 163.185 37.49 163.165 37.63C163.145 37.77 163.055 37.8 162.895 37.72H162.595L162.895 38.62C162.975 38.78 163.045 39 163.105 39.28C163.165 39.54 163.195 39.78 163.195 40C163.195 40.2 163.165 40.5 163.105 40.9C163.065 41.28 162.995 41.69 162.895 42.13C162.815 42.57 162.725 42.98 162.625 43.36C162.545 43.74 162.465 44.02 162.385 44.2C162.325 44.32 162.285 44.44 162.265 44.56C162.265 44.66 162.265 44.75 162.265 44.83C162.185 44.99 162.055 45.27 161.875 45.67C161.695 46.07 161.565 46.35 161.485 46.51C161.405 46.59 161.335 46.66 161.275 46.72C161.235 46.78 161.255 46.85 161.335 46.93C161.335 46.99 161.285 47.13 161.185 47.35C161.085 47.55 160.975 47.74 160.855 47.92C160.755 48.1 160.675 48.19 160.615 48.19C160.615 48.19 160.585 48.2 160.525 48.22C160.485 48.22 160.465 48.25 160.465 48.31C160.465 48.39 160.325 48.6 160.045 48.94C159.785 49.28 159.475 49.63 159.115 49.99C158.915 50.19 158.595 50.45 158.155 50.77C157.715 51.07 157.275 51.34 156.835 51.58C156.415 51.8 156.095 51.91 155.875 51.91ZM155.815 49.03C156.035 49.03 156.245 49 156.445 48.94C156.645 48.86 156.815 48.75 156.955 48.61C157.315 48.37 157.655 48.05 157.975 47.65C158.315 47.25 158.595 46.79 158.815 46.27C159.035 45.97 159.205 45.66 159.325 45.34C159.465 45 159.675 44.43 159.955 43.63C160.115 43.41 160.225 43.14 160.285 42.82C160.345 42.5 160.375 42.23 160.375 42.01C160.375 41.79 160.375 41.49 160.375 41.11C160.395 40.73 160.445 40.41 160.525 40.15C160.525 39.63 160.515 39.33 160.495 39.25C160.475 39.15 160.395 39.02 160.255 38.86C160.175 38.8 160.065 38.74 159.925 38.68C159.805 38.62 159.675 38.59 159.535 38.59C159.395 38.59 159.205 38.63 158.965 38.71C158.745 38.77 158.555 38.85 158.395 38.95C158.255 39.03 158.095 39.04 157.915 38.98C157.755 38.92 157.675 38.84 157.675 38.74C157.675 38.46 157.535 38.48 157.255 38.8C156.995 39.1 156.645 39.52 156.205 40.06C155.845 40.42 155.535 40.79 155.275 41.17C155.035 41.53 154.915 41.75 154.915 41.83C154.915 41.91 154.885 42.01 154.825 42.13C154.765 42.25 154.705 42.39 154.645 42.55C154.545 42.69 154.425 42.92 154.285 43.24C154.145 43.56 154.005 43.88 153.865 44.2C153.745 44.5 153.665 44.73 153.625 44.89C153.625 44.97 153.625 45.19 153.625 45.55C153.625 45.89 153.625 46.21 153.625 46.51C153.625 46.85 153.635 47.1 153.655 47.26C153.675 47.42 153.705 47.55 153.745 47.65C153.805 47.75 153.885 47.9 153.985 48.1C154.065 48.24 154.185 48.41 154.345 48.61C154.525 48.79 154.645 48.92 154.705 49C154.925 49.2 155.065 49.28 155.125 49.24C155.205 49.18 155.435 49.11 155.815 49.03ZM165.691 46.84C165.571 46.84 165.421 46.84 165.241 46.84C165.061 46.82 164.861 46.77 164.641 46.69C164.341 46.69 164.101 46.63 163.921 46.51C163.761 46.37 163.641 46.23 163.561 46.09C163.341 45.79 163.351 45.56 163.591 45.4C163.851 45.22 164.351 45.09 165.091 45.01C165.431 44.93 165.931 44.87 166.591 44.83C167.271 44.77 168.001 44.73 168.781 44.71C169.561 44.67 170.301 44.64 171.001 44.62C171.701 44.6 172.251 44.59 172.651 44.59C173.171 44.59 173.631 44.64 174.031 44.74C174.451 44.84 174.771 45 174.991 45.22C175.291 45.52 175.361 45.84 175.201 46.18C175.041 46.5 174.731 46.62 174.271 46.54C174.171 46.54 173.981 46.55 173.701 46.57C173.421 46.59 173.111 46.61 172.771 46.63C172.451 46.65 172.171 46.67 171.931 46.69C171.811 46.69 171.481 46.7 170.941 46.72C170.401 46.74 169.771 46.76 169.051 46.78C168.351 46.8 167.681 46.82 167.041 46.84C166.421 46.84 165.971 46.84 165.691 46.84ZM169.711 51.52C169.411 51.74 169.171 51.73 168.991 51.49C168.831 51.23 168.711 50.73 168.631 49.99C168.551 49.65 168.481 49.15 168.421 48.49C168.381 47.81 168.341 47.08 168.301 46.3C168.281 45.52 168.261 44.78 168.241 44.08C168.221 43.38 168.211 42.83 168.211 42.43C168.211 41.91 168.261 41.45 168.361 41.05C168.461 40.63 168.611 40.31 168.811 40.09C169.111 39.79 169.431 39.72 169.771 39.88C170.111 40.04 170.241 40.35 170.161 40.81C170.181 40.91 170.191 41.1 170.191 41.38C170.211 41.66 170.231 41.97 170.251 42.31C170.271 42.63 170.291 42.91 170.311 43.15C170.311 43.27 170.321 43.6 170.341 44.14C170.361 44.68 170.381 45.31 170.401 46.03C170.421 46.73 170.431 47.4 170.431 48.04C170.451 48.66 170.461 49.11 170.461 49.39C170.461 49.51 170.451 49.66 170.431 49.84C170.431 50.02 170.391 50.22 170.311 50.44C170.311 50.74 170.241 50.98 170.101 51.16C169.981 51.32 169.851 51.44 169.711 51.52ZM185.415 50.86C185.275 50.88 185.115 50.83 184.935 50.71C184.775 50.57 184.625 50.45 184.485 50.35C184.285 50.11 184.145 49.9 184.065 49.72C183.985 49.54 183.945 49.34 183.945 49.12C183.945 48.9 183.965 48.64 184.005 48.34C184.105 48.02 184.225 47.59 184.365 47.05C184.505 46.51 184.675 45.93 184.875 45.31C184.915 45.07 184.985 44.79 185.085 44.47C185.205 44.13 185.325 43.81 185.445 43.51C185.565 43.19 185.655 42.95 185.715 42.79C185.855 42.29 185.995 41.81 186.135 41.35C186.295 40.89 186.485 40.36 186.705 39.76C186.925 39.16 187.195 38.4 187.515 37.48C187.955 36.28 188.285 35.38 188.505 34.78C188.725 34.18 188.885 33.75 188.985 33.49C189.085 33.23 189.155 33.02 189.195 32.86C189.195 32.7 189.305 32.55 189.525 32.41C189.765 32.25 189.975 32.17 190.155 32.17C190.435 32.19 190.705 32.36 190.965 32.68C191.225 32.98 191.405 33.35 191.505 33.79C191.605 34.21 191.535 34.62 191.295 35.02C190.975 35.74 190.655 36.55 190.335 37.45C190.035 38.33 189.735 39.21 189.435 40.09C189.135 40.97 188.835 41.78 188.535 42.52C188.515 42.62 188.445 42.79 188.325 43.03C188.225 43.27 188.135 43.47 188.055 43.63C187.975 43.79 187.895 43.94 187.815 44.08C187.755 44.22 187.725 44.29 187.725 44.29C187.705 44.41 187.665 44.58 187.605 44.8C187.545 45.02 187.485 45.21 187.425 45.37C187.405 45.47 187.375 45.6 187.335 45.76C187.295 45.92 187.265 46.08 187.245 46.24C187.345 46.12 187.485 45.98 187.665 45.82C187.845 45.64 188.075 45.42 188.355 45.16C188.675 44.88 188.955 44.64 189.195 44.44C189.435 44.24 189.675 44.06 189.915 43.9C190.135 43.74 190.335 43.59 190.515 43.45C190.715 43.31 190.815 43.24 190.815 43.24C190.855 43.18 190.895 43.11 190.935 43.03C190.995 42.95 191.055 42.9 191.115 42.88C191.155 42.84 191.225 42.79 191.325 42.73C191.425 42.65 191.525 42.57 191.625 42.49C191.805 42.37 191.995 42.27 192.195 42.19C192.395 42.11 192.605 42.05 192.825 42.01C193.045 41.97 193.255 41.95 193.455 41.95C193.695 41.95 193.945 42.05 194.205 42.25C194.465 42.43 194.705 42.69 194.925 43.03C195.125 43.29 195.245 43.6 195.285 43.96C195.345 44.3 195.355 44.76 195.315 45.34C195.315 45.5 195.265 45.8 195.165 46.24C195.085 46.68 195.025 47.01 194.985 47.23L194.715 48.25H194.955C195.175 48.17 195.385 48.16 195.585 48.22C195.805 48.28 195.915 48.31 195.915 48.31C196.015 48.37 196.105 48.44 196.185 48.52C196.285 48.6 196.375 48.66 196.455 48.7C196.575 48.86 196.555 49.09 196.395 49.39C196.235 49.69 196.055 49.9 195.855 50.02C195.375 50.34 194.945 50.54 194.565 50.62C194.205 50.7 193.825 50.63 193.425 50.41C193.045 50.15 192.785 49.84 192.645 49.48C192.525 49.12 192.475 48.63 192.495 48.01C192.575 47.13 192.625 46.5 192.645 46.12C192.665 45.72 192.565 45.52 192.345 45.52C192.105 45.52 191.775 45.64 191.355 45.88C190.955 46.1 190.505 46.41 190.005 46.81C189.505 47.19 189.005 47.62 188.505 48.1C188.025 48.56 187.595 49.03 187.215 49.51C186.975 49.81 186.715 50.11 186.435 50.41C186.155 50.69 185.815 50.84 185.415 50.86ZM200.465 51.79C200.205 51.79 199.995 51.74 199.835 51.64C199.695 51.54 199.515 51.4 199.295 51.22C198.915 50.82 198.605 50.39 198.365 49.93C198.145 49.47 198.065 49.07 198.125 48.73C198.185 48.57 198.205 48.42 198.185 48.28C198.185 48.12 198.185 48.04 198.185 48.04C198.085 47.94 198.055 47.88 198.095 47.86C198.135 47.82 198.175 47.76 198.215 47.68C198.335 47.68 198.375 47.57 198.335 47.35C198.295 47.19 198.355 46.85 198.515 46.33C198.695 45.79 198.935 45.28 199.235 44.8C199.355 44.6 199.535 44.34 199.775 44.02C200.015 43.68 200.275 43.35 200.555 43.03C200.855 42.69 201.125 42.42 201.365 42.22C201.865 41.8 202.325 41.46 202.745 41.2C203.185 40.94 203.625 40.76 204.065 40.66C204.505 40.56 204.955 40.51 205.415 40.51C205.895 40.51 206.285 40.67 206.585 40.99C207.045 41.19 207.365 41.46 207.545 41.8C207.745 42.14 207.875 42.58 207.935 43.12C207.995 43.72 207.935 44.46 207.755 45.34C207.575 46.2 207.085 47.2 206.285 48.34C205.785 49.06 205.295 49.62 204.815 50.02C204.335 50.42 203.805 50.79 203.225 51.13C202.805 51.41 202.355 51.58 201.875 51.64C201.395 51.7 200.925 51.75 200.465 51.79ZM203.525 48.13C203.965 47.75 204.275 47.33 204.455 46.87C204.655 46.41 204.865 45.87 205.085 45.25C205.165 45.13 205.215 44.93 205.235 44.65C205.275 44.37 205.285 44.1 205.265 43.84C205.245 43.56 205.175 43.4 205.055 43.36C204.875 43.22 204.695 43.19 204.515 43.27C204.335 43.33 204.105 43.46 203.825 43.66C203.225 44.16 202.665 44.74 202.145 45.4C201.645 46.04 201.295 46.83 201.095 47.77C201.035 48.27 201.085 48.65 201.245 48.91C201.425 49.15 201.705 49.22 202.085 49.12C202.485 49 202.965 48.67 203.525 48.13ZM216.584 52.18C216.444 52.26 216.254 52.23 216.014 52.09C215.794 51.95 215.574 51.74 215.354 51.46C215.214 51.22 215.104 50.98 215.024 50.74C214.964 50.48 214.934 50.1 214.934 49.6C214.954 49.2 214.954 48.93 214.934 48.79C214.934 48.63 214.844 48.62 214.664 48.76C214.504 48.88 214.174 49.18 213.674 49.66C213.174 50.16 212.694 50.59 212.234 50.95C211.794 51.29 211.434 51.45 211.154 51.43C211.014 51.43 210.824 51.34 210.584 51.16C210.344 50.98 210.114 50.76 209.894 50.5C209.674 50.22 209.514 49.96 209.414 49.72C209.294 49.24 209.284 48.62 209.384 47.86C209.504 47.1 209.694 46.31 209.954 45.49C210.214 44.65 210.504 43.87 210.824 43.15C211.164 42.41 211.494 41.82 211.814 41.38C212.154 40.92 212.444 40.7 212.684 40.72C213.024 40.76 213.314 40.93 213.554 41.23C213.814 41.51 214.014 41.82 214.154 42.16C214.234 42.3 214.264 42.42 214.244 42.52C214.244 42.62 214.164 42.74 214.004 42.88C213.824 43.12 213.604 43.47 213.344 43.93C213.104 44.37 212.854 44.85 212.594 45.37C212.354 45.89 212.134 46.39 211.934 46.87C211.754 47.33 211.624 47.71 211.544 48.01C211.464 48.31 211.464 48.46 211.544 48.46C211.824 48.46 212.084 48.39 212.324 48.25C212.564 48.09 212.864 47.84 213.224 47.5C213.644 47.08 214.014 46.66 214.334 46.24C214.654 45.8 214.984 45.3 215.324 44.74C215.584 44.34 215.854 43.9 216.134 43.42C216.434 42.94 216.624 42.6 216.704 42.4C216.984 41.88 217.194 41.49 217.334 41.23C217.474 40.97 217.644 40.81 217.844 40.75C217.944 40.75 218.084 40.75 218.264 40.75C218.444 40.75 218.534 40.75 218.534 40.75C218.654 40.77 218.794 40.86 218.954 41.02C219.114 41.1 219.274 41.21 219.434 41.35C219.614 41.49 219.704 41.61 219.704 41.71C219.624 41.91 219.494 42.21 219.314 42.61C219.154 42.99 219.034 43.27 218.954 43.45C218.574 44.31 218.204 45.16 217.844 46C217.504 46.82 217.254 47.66 217.094 48.52C217.054 48.8 217.044 49.13 217.064 49.51C217.104 49.87 217.164 50.13 217.244 50.29C217.304 50.41 217.374 50.55 217.454 50.71C217.554 50.85 217.664 50.97 217.784 51.07C217.964 51.19 217.954 51.34 217.754 51.52C217.574 51.7 217.344 51.86 217.064 52C216.804 52.12 216.644 52.18 216.584 52.18ZM222.798 51.37C222.738 51.39 222.608 51.38 222.408 51.34C222.228 51.3 222.038 51.25 221.838 51.19C221.658 51.13 221.548 51.08 221.508 51.04C221.428 50.96 221.318 50.82 221.178 50.62C221.038 50.4 220.958 50.11 220.938 49.75C220.938 49.39 221.108 48.96 221.448 48.46C221.548 48.26 221.668 47.96 221.808 47.56C221.948 47.16 222.088 46.74 222.228 46.3C222.388 45.84 222.528 45.43 222.648 45.07C222.788 44.71 222.888 44.46 222.948 44.32C222.988 43.98 222.968 43.74 222.888 43.6C222.828 43.44 222.658 43.35 222.378 43.33C222.178 43.33 222.018 43.26 221.898 43.12C221.798 42.98 221.748 42.73 221.748 42.37C221.788 42.09 221.858 41.85 221.958 41.65C222.078 41.43 222.238 41.25 222.438 41.11C222.638 41.01 222.888 40.94 223.188 40.9C223.508 40.86 223.818 40.85 224.118 40.87C224.418 40.89 224.628 40.96 224.748 41.08C224.888 41.16 224.998 41.34 225.078 41.62C225.178 41.88 225.258 42.15 225.318 42.43C225.378 42.71 225.418 42.92 225.438 43.06C225.638 42.9 225.858 42.68 226.098 42.4C226.358 42.1 226.618 41.82 226.878 41.56C227.198 41.34 227.578 41.12 228.018 40.9C228.458 40.66 228.778 40.54 228.978 40.54C229.198 40.54 229.468 40.65 229.788 40.87C230.108 41.07 230.308 41.25 230.388 41.41C230.588 41.75 230.728 42.11 230.808 42.49C230.908 42.85 230.848 43.17 230.628 43.45C230.428 43.71 230.148 43.97 229.788 44.23C229.428 44.47 228.978 44.54 228.438 44.44C228.318 44.4 228.188 44.25 228.048 43.99C227.928 43.73 227.858 43.54 227.838 43.42C227.838 43.36 227.748 43.42 227.568 43.6C227.408 43.76 227.208 43.96 226.968 44.2C226.748 44.44 226.538 44.66 226.338 44.86C225.998 45.28 225.638 45.85 225.258 46.57C224.878 47.29 224.428 48.16 223.908 49.18C223.668 49.68 223.468 50.16 223.308 50.62C223.148 51.06 222.978 51.31 222.798 51.37ZM234.178 52.21C233.118 52.21 232.338 51.87 231.838 51.19C231.698 50.87 231.628 50.55 231.628 50.23C231.648 49.89 231.728 49.65 231.868 49.51C232.008 49.35 232.178 49.38 232.378 49.6C232.638 49.76 233.008 49.84 233.488 49.84C233.728 49.84 233.938 49.84 234.118 49.84C234.318 49.82 234.548 49.8 234.808 49.78C235.268 49.74 235.558 49.6 235.678 49.36C235.818 49.12 235.788 48.92 235.588 48.76H235.618C235.078 48.62 234.548 48.42 234.028 48.16C233.508 47.9 233.068 47.61 232.708 47.29C232.348 46.95 232.138 46.63 232.078 46.33C231.918 45.67 231.958 44.99 232.198 44.29C232.438 43.59 232.788 42.98 233.248 42.46C233.428 42.34 233.678 42.17 233.998 41.95C234.318 41.71 234.548 41.58 234.688 41.56V41.59C235.068 41.19 235.498 40.87 235.978 40.63C236.458 40.37 237.018 40.13 237.658 39.91L238.138 39.85C238.378 39.81 238.588 39.79 238.768 39.79C238.748 39.79 238.798 39.81 238.918 39.85C239.038 39.89 239.138 39.92 239.218 39.94C239.338 40 239.458 40.03 239.578 40.03C239.858 40.07 240.128 40.22 240.388 40.48C240.668 40.72 240.888 41.01 241.048 41.35C241.228 41.67 241.298 41.97 241.258 42.25C241.198 42.71 241.028 43.17 240.748 43.63C240.468 44.07 240.168 44.32 239.848 44.38C239.888 44.36 239.848 44.32 239.728 44.26C239.608 44.2 239.498 44.14 239.398 44.08L239.278 44.14C239.278 44.14 239.268 44.11 239.248 44.05C239.248 43.99 239.228 43.92 239.188 43.84C239.108 43.7 239.048 43.55 239.008 43.39C238.988 43.23 238.988 43.05 239.008 42.85C239.048 42.63 239.058 42.5 239.038 42.46C239.018 42.42 238.898 42.39 238.678 42.37C238.418 42.31 238.088 42.34 237.688 42.46C237.288 42.56 236.918 42.74 236.578 43C236.178 43.26 235.878 43.47 235.678 43.63C235.498 43.79 235.358 43.95 235.258 44.11C235.158 44.25 235.048 44.46 234.928 44.74C234.848 44.88 234.778 45.01 234.718 45.13C234.658 45.23 234.628 45.33 234.628 45.43C234.628 45.63 234.798 45.84 235.138 46.06C235.478 46.26 235.988 46.5 236.668 46.78C237.208 47 237.558 47.3 237.718 47.68C237.898 48.06 238.058 48.42 238.198 48.76C238.238 48.84 238.278 48.99 238.318 49.21C238.378 49.41 238.388 49.53 238.348 49.57C238.388 49.61 238.408 49.65 238.408 49.69V49.66C238.568 49.96 238.538 50.28 238.318 50.62C238.118 50.94 237.798 51.24 237.358 51.52C236.918 51.78 236.418 51.97 235.858 52.09H235.888C235.588 52.13 235.288 52.16 234.988 52.18C234.708 52.2 234.438 52.21 234.178 52.21ZM84.0093 89.73C83.2293 89.41 82.6893 88.89 82.3893 88.17C82.0893 87.45 82.0093 86.49 82.1493 85.29C82.1893 84.67 82.1693 84.26 82.0893 84.06C82.0093 83.84 81.8593 83.63 81.6393 83.43C81.5793 83.35 81.4393 83.22 81.2193 83.04C80.9993 82.84 80.8993 82.69 80.9193 82.59C80.8993 82.45 80.9293 82.28 81.0093 82.08C81.0893 81.86 81.1593 81.74 81.2193 81.72C81.3593 81.66 81.4993 81.59 81.6393 81.51C81.7993 81.43 81.9193 81.41 81.9993 81.45C82.0793 81.45 82.1993 81.5 82.3593 81.6C82.5393 81.7 82.6293 81.79 82.6293 81.87C82.7093 82.01 82.8293 81.95 82.9893 81.69C83.1693 81.43 83.3593 81.1 83.5593 80.7C83.7593 80.38 84.0093 80.08 84.3093 79.8C84.6093 79.52 84.9093 79.27 85.2093 79.05C85.5293 78.81 85.7993 78.63 86.0193 78.51C86.1193 78.47 86.3093 78.41 86.5893 78.33C86.8893 78.25 87.1993 78.19 87.5193 78.15C87.8393 78.09 88.0793 78.07 88.2393 78.09C88.5993 78.11 88.9793 78.26 89.3793 78.54C89.7793 78.82 90.0893 79.08 90.3093 79.32C90.5693 79.5 90.7393 79.78 90.8193 80.16C90.9193 80.52 90.9593 80.9 90.9393 81.3C90.9193 81.7 90.8393 82.04 90.6993 82.32C90.6393 82.52 90.4293 82.8 90.0693 83.16C89.7093 83.52 89.3093 83.87 88.8693 84.21C88.4493 84.53 88.0893 84.75 87.7893 84.87C87.5293 84.93 87.2193 84.98 86.8593 85.02C86.4993 85.04 86.1593 85.04 85.8393 85.02C85.5393 84.98 85.3293 84.93 85.2093 84.87C85.0693 84.79 84.9493 84.82 84.8493 84.96C84.7693 85.08 84.6993 85.42 84.6393 85.98C84.6193 86.2 84.6193 86.39 84.6393 86.55C84.6793 86.71 84.7193 86.83 84.7593 86.91C84.8993 87.15 85.0393 87.33 85.1793 87.45C85.3193 87.55 85.5793 87.58 85.9593 87.54C86.3393 87.5 86.7193 87.27 87.0993 86.85C87.4993 86.41 87.8593 86.06 88.1793 85.8C88.2593 85.66 88.4293 85.57 88.6893 85.53C88.9693 85.47 89.2993 85.49 89.6793 85.59C89.8993 85.73 89.9993 85.95 89.9793 86.25C89.9793 86.55 89.8193 86.99 89.4993 87.57C89.4393 87.71 89.2693 87.92 88.9893 88.2C88.7293 88.46 88.4393 88.73 88.1193 89.01C87.8193 89.27 87.5693 89.46 87.3693 89.58C86.7693 89.9 86.1793 90.05 85.5993 90.03C85.0193 90.01 84.4893 89.91 84.0093 89.73ZM86.2293 82.98C86.5293 82.9 86.7793 82.82 86.9793 82.74C87.1993 82.66 87.4093 82.53 87.6093 82.35C87.8093 82.17 88.0393 81.9 88.2993 81.54C88.3793 81.32 88.4193 81.13 88.4193 80.97C88.4393 80.81 88.4293 80.71 88.3893 80.67C88.2293 80.51 88.0493 80.46 87.8493 80.52C87.6693 80.56 87.4693 80.66 87.2493 80.82C87.1093 80.88 86.9093 81.01 86.6493 81.21C86.4093 81.39 86.1693 81.6 85.9293 81.84C85.7093 82.06 85.5293 82.27 85.3893 82.47C85.2693 82.65 85.2493 82.76 85.3293 82.8C85.2893 82.88 85.3993 82.93 85.6593 82.95C85.9393 82.97 86.1293 82.98 86.2293 82.98ZM94.3888 88.41C94.2488 88.29 94.0588 87.93 93.8188 87.33C93.5988 86.73 93.3788 86.03 93.1588 85.23C92.9588 84.43 92.7988 83.69 92.6788 83.01C92.5988 82.61 92.5088 82.27 92.4088 81.99C92.3288 81.71 92.2588 81.48 92.1988 81.3C92.0988 80.94 92.1288 80.56 92.2888 80.16C92.4688 79.76 92.6788 79.49 92.9188 79.35C93.0188 79.29 93.1988 79.25 93.4588 79.23C93.7388 79.19 93.9188 79.18 93.9988 79.2C94.2388 79.28 94.4588 79.65 94.6588 80.31C94.8588 80.95 95.0388 81.8 95.1988 82.86C95.2788 83.48 95.3388 83.94 95.3788 84.24C95.4388 84.52 95.4688 84.7 95.4688 84.78C95.5488 84.94 95.5988 85.14 95.6188 85.38C95.6588 85.6 95.7588 85.63 95.9188 85.47C95.9988 85.39 96.1188 85.25 96.2788 85.05C96.4588 84.85 96.6688 84.59 96.9088 84.27C97.3288 83.71 97.6588 83.25 97.8988 82.89C98.1588 82.51 98.4488 82.12 98.7688 81.72C98.9088 81.52 99.0988 81.3 99.3388 81.06C99.5788 80.82 99.8188 80.6 100.059 80.4C100.299 80.18 100.499 80.05 100.659 80.01C101.139 79.93 101.429 80.11 101.529 80.55C101.649 80.97 101.509 81.46 101.109 82.02C100.949 82.26 100.819 82.49 100.719 82.71C100.639 82.91 100.559 83.05 100.479 83.13C100.319 83.45 100.069 83.86 99.7288 84.36C99.3888 84.84 99.0588 85.29 98.7388 85.71C98.4188 86.11 98.1988 86.37 98.0788 86.49C97.9988 86.57 97.8188 86.72 97.5388 86.94C97.2788 87.16 97.0288 87.44 96.7888 87.78C96.3088 88.24 95.8488 88.52 95.4088 88.62C94.9688 88.72 94.6288 88.65 94.3888 88.41ZM107.74 89.4C107.14 89.74 106.5 89.94 105.82 90C105.16 90.04 104.54 89.95 103.96 89.73C103.38 89.49 102.91 89.14 102.55 88.68C102.35 88.42 102.16 88.01 101.98 87.45C101.8 86.87 101.77 86.09 101.89 85.11C102.01 84.19 102.29 83.26 102.73 82.32C103.19 81.38 103.75 80.55 104.41 79.83C105.07 79.11 105.79 78.62 106.57 78.36C106.85 78.26 107.13 78.19 107.41 78.15C107.71 78.09 108.1 78.08 108.58 78.12C109.04 78.18 109.45 78.3 109.81 78.48C110.17 78.64 110.43 78.82 110.59 79.02C110.91 79.34 111.12 79.65 111.22 79.95C111.32 80.25 111.36 80.54 111.34 80.82C111.24 81.46 110.95 82.15 110.47 82.89C110.01 83.63 109.36 84.18 108.52 84.54C108.18 84.68 107.78 84.77 107.32 84.81C106.86 84.85 106.23 84.79 105.43 84.63C104.95 84.53 104.63 84.58 104.47 84.78C104.33 84.98 104.27 85.37 104.29 85.95C104.33 86.31 104.41 86.63 104.53 86.91C104.67 87.17 104.92 87.35 105.28 87.45C105.74 87.53 106.07 87.54 106.27 87.48C106.47 87.4 106.72 87.29 107.02 87.15C107.18 87.05 107.33 86.94 107.47 86.82C107.63 86.7 107.78 86.58 107.92 86.46C108.08 86.34 108.21 86.25 108.31 86.19C108.41 86.11 108.51 86.06 108.61 86.04C108.71 86.02 108.81 86.01 108.91 86.01C109.13 86.03 109.34 86.15 109.54 86.37C109.74 86.59 109.87 86.8 109.93 87C109.93 87.16 109.83 87.39 109.63 87.69C109.43 87.97 109.16 88.27 108.82 88.59C108.5 88.89 108.14 89.16 107.74 89.4ZM107.35 82.71C107.49 82.65 107.69 82.51 107.95 82.29C108.23 82.07 108.48 81.84 108.7 81.6C108.92 81.34 109.03 81.14 109.03 81C109.03 80.78 108.88 80.59 108.58 80.43C108.3 80.27 107.93 80.24 107.47 80.34C107.31 80.38 107.12 80.49 106.9 80.67C106.68 80.85 106.46 81.06 106.24 81.3C106.02 81.52 105.83 81.74 105.67 81.96C105.51 82.16 105.4 82.32 105.34 82.44C105.42 82.54 105.58 82.62 105.82 82.68C106.06 82.74 106.32 82.77 106.6 82.77C106.9 82.77 107.15 82.75 107.35 82.71ZM114.37 89.37C114.31 89.39 114.18 89.38 113.98 89.34C113.8 89.3 113.61 89.25 113.41 89.19C113.23 89.13 113.12 89.08 113.08 89.04C113 88.96 112.89 88.82 112.75 88.62C112.61 88.4 112.53 88.11 112.51 87.75C112.51 87.39 112.68 86.96 113.02 86.46C113.12 86.26 113.24 85.96 113.38 85.56C113.52 85.16 113.66 84.74 113.8 84.3C113.96 83.84 114.1 83.43 114.22 83.07C114.36 82.71 114.46 82.46 114.52 82.32C114.56 81.98 114.54 81.74 114.46 81.6C114.4 81.44 114.23 81.35 113.95 81.33C113.75 81.33 113.59 81.26 113.47 81.12C113.37 80.98 113.32 80.73 113.32 80.37C113.36 80.09 113.43 79.85 113.53 79.65C113.65 79.43 113.81 79.25 114.01 79.11C114.21 79.01 114.46 78.94 114.76 78.9C115.08 78.86 115.39 78.85 115.69 78.87C115.99 78.89 116.2 78.96 116.32 79.08C116.46 79.16 116.57 79.34 116.65 79.62C116.75 79.88 116.83 80.15 116.89 80.43C116.95 80.71 116.99 80.92 117.01 81.06C117.21 80.9 117.43 80.68 117.67 80.4C117.93 80.1 118.19 79.82 118.45 79.56C118.77 79.34 119.15 79.12 119.59 78.9C120.03 78.66 120.35 78.54 120.55 78.54C120.77 78.54 121.04 78.65 121.36 78.87C121.68 79.07 121.88 79.25 121.96 79.41C122.16 79.75 122.3 80.11 122.38 80.49C122.48 80.85 122.42 81.17 122.2 81.45C122 81.71 121.72 81.97 121.36 82.23C121 82.47 120.55 82.54 120.01 82.44C119.89 82.4 119.76 82.25 119.62 81.99C119.5 81.73 119.43 81.54 119.41 81.42C119.41 81.36 119.32 81.42 119.14 81.6C118.98 81.76 118.78 81.96 118.54 82.2C118.32 82.44 118.11 82.66 117.91 82.86C117.57 83.28 117.21 83.85 116.83 84.57C116.45 85.29 116 86.16 115.48 87.18C115.24 87.68 115.04 88.16 114.88 88.62C114.72 89.06 114.55 89.31 114.37 89.37ZM124.461 97.14C124.381 97.16 124.261 97.13 124.101 97.05C123.961 96.97 123.841 96.83 123.741 96.63C123.641 96.43 123.611 96.17 123.651 95.85C123.571 95.57 123.581 95.22 123.681 94.8C123.801 94.4 124.051 93.8 124.431 93C124.631 92.68 124.811 92.3 124.971 91.86C125.151 91.42 125.351 90.98 125.571 90.54C125.671 90.36 125.841 90.05 126.081 89.61C126.341 89.17 126.621 88.65 126.921 88.05C127.241 87.43 127.531 86.79 127.791 86.13C127.271 86.67 126.821 87.18 126.441 87.66C126.081 88.12 125.751 88.49 125.451 88.77C125.171 89.03 124.871 89.15 124.551 89.13C124.291 89.07 123.981 88.9 123.621 88.62C123.261 88.34 123.031 88.03 122.931 87.69C122.851 87.25 122.821 86.69 122.841 86.01C122.881 85.33 123.011 84.3 123.231 82.92C123.391 82.24 123.461 81.72 123.441 81.36C123.441 80.98 123.391 80.7 123.291 80.52C123.191 80.34 123.061 80.18 122.901 80.04C122.641 79.8 122.621 79.54 122.841 79.26C123.061 78.98 123.311 78.77 123.591 78.63C124.011 78.53 124.341 78.51 124.581 78.57C124.841 78.61 125.101 78.78 125.361 79.08C125.521 79.34 125.681 79.62 125.841 79.92C126.001 80.22 126.081 80.65 126.081 81.21C126.081 81.45 126.071 81.72 126.051 82.02C126.031 82.3 126.011 82.56 125.991 82.8C125.971 83.04 125.951 83.23 125.931 83.37C125.731 84.11 125.551 84.75 125.391 85.29C125.231 85.83 125.201 86.1 125.301 86.1C125.701 85.78 126.041 85.47 126.321 85.17C126.621 84.87 126.941 84.51 127.281 84.09C127.621 83.67 128.041 83.12 128.541 82.44C128.721 82.1 128.901 81.77 129.081 81.45C129.261 81.13 129.411 80.8 129.531 80.46C129.651 80.2 129.811 79.93 130.011 79.65C130.211 79.35 130.351 79.19 130.431 79.17C130.531 79.13 130.671 79.14 130.851 79.2C131.031 79.26 131.201 79.33 131.361 79.41C131.541 79.47 131.631 79.52 131.631 79.56C131.651 79.58 131.751 79.6 131.931 79.62C132.111 79.64 132.291 79.66 132.471 79.68C132.651 79.68 132.741 79.71 132.741 79.77C132.741 79.81 132.681 79.96 132.561 80.22C132.461 80.48 132.341 80.77 132.201 81.09C132.061 81.41 131.931 81.7 131.811 81.96C131.711 82.2 131.671 82.34 131.691 82.38C131.731 82.42 131.701 82.57 131.601 82.83C131.501 83.07 131.381 83.34 131.241 83.64C131.121 83.94 131.011 84.21 130.911 84.45C130.711 85.11 130.481 85.77 130.221 86.43C129.961 87.07 129.651 87.71 129.291 88.35C129.171 88.59 128.991 88.96 128.751 89.46C128.531 89.96 128.311 90.45 128.091 90.93C127.891 91.43 127.731 91.81 127.611 92.07C127.531 92.23 127.411 92.48 127.251 92.82C127.111 93.18 126.951 93.57 126.771 93.99C126.611 94.41 126.451 94.8 126.291 95.16C126.131 95.54 126.011 95.83 125.931 96.03C125.891 96.41 125.801 96.69 125.661 96.87C125.481 97.05 125.231 97.14 124.911 97.14C124.611 97.14 124.461 97.14 124.461 97.14ZM157.521 91.44C157.441 91.52 157.251 91.54 156.951 91.5C156.651 91.48 156.411 91.34 156.231 91.08C156.091 90.8 156.011 90.48 155.991 90.12C155.971 89.76 155.971 89.26 155.991 88.62C156.111 87.92 156.311 87 156.591 85.86C156.871 84.72 157.181 83.45 157.521 82.05C157.881 80.63 158.241 79.18 158.601 77.7C158.781 77 158.921 76.41 159.021 75.93C159.141 75.45 159.221 75.09 159.261 74.85C159.321 74.59 159.351 74.46 159.351 74.46C159.331 74.5 159.301 74.54 159.261 74.58C159.241 74.62 159.221 74.66 159.201 74.7C159.181 74.74 159.161 74.78 159.141 74.82C159.141 74.82 159.101 74.89 159.021 75.03C158.961 75.17 158.821 75.41 158.601 75.75C158.441 75.99 158.291 76.27 158.151 76.59C158.011 76.91 157.771 77.33 157.431 77.85C157.111 78.45 156.751 79.14 156.351 79.92C155.951 80.7 155.611 81.32 155.331 81.78C155.191 82 155.061 82.19 154.941 82.35C154.841 82.51 154.771 82.64 154.731 82.74C154.651 82.96 154.521 83.23 154.341 83.55C154.161 83.87 153.951 84.18 153.711 84.48C153.591 84.66 153.431 84.87 153.231 85.11C153.051 85.35 152.891 85.57 152.751 85.77C152.611 85.95 152.541 86.04 152.541 86.04C152.501 86.16 152.371 86.35 152.151 86.61C151.931 86.87 151.661 87.16 151.341 87.48C151.041 87.78 150.731 88.06 150.411 88.32C149.711 88.88 149.131 89.23 148.671 89.37C148.231 89.51 147.721 89.34 147.141 88.86C146.881 88.54 146.671 88.22 146.511 87.9C146.351 87.56 146.271 87.1 146.271 86.52C146.271 85.94 146.371 85.13 146.571 84.09C146.711 83.43 146.861 82.73 147.021 81.99C147.201 81.25 147.381 80.54 147.561 79.86C147.741 79.16 147.901 78.56 148.041 78.06C148.201 77.54 148.311 77.18 148.371 76.98C148.431 76.48 148.441 76.22 148.401 76.2C148.361 76.16 148.261 76.27 148.101 76.53C147.961 76.75 147.701 77.21 147.321 77.91C146.941 78.61 146.511 79.43 146.031 80.37C145.571 81.31 145.121 82.25 144.681 83.19C143.861 84.71 143.171 85.98 142.611 87C142.051 88.02 141.591 88.84 141.231 89.46C140.871 90.06 140.591 90.51 140.391 90.81C140.211 91.13 140.071 91.35 139.971 91.47C139.891 91.61 139.831 91.7 139.791 91.74C139.491 91.72 139.231 91.58 139.011 91.32C138.791 91.06 138.611 90.75 138.471 90.39C138.431 90.19 138.401 89.98 138.381 89.76C138.361 89.54 138.381 89.3 138.441 89.04C138.521 88.76 138.641 88.46 138.801 88.14C139.061 87.62 139.311 87.18 139.551 86.82C139.791 86.46 139.941 86.24 140.001 86.16C140.101 86.02 140.181 85.87 140.241 85.71C140.301 85.55 140.341 85.4 140.361 85.26C140.461 85.14 140.611 84.89 140.811 84.51C141.031 84.13 141.251 83.72 141.471 83.28C141.631 83.02 141.851 82.66 142.131 82.2C142.411 81.72 142.711 81.21 143.031 80.67C143.351 80.11 143.631 79.6 143.871 79.14C144.751 77.56 145.451 76.3 145.971 75.36C146.491 74.4 146.861 73.79 147.081 73.53C147.221 73.43 147.341 73.24 147.441 72.96C147.561 72.66 147.661 72.44 147.741 72.3C148.021 71.74 148.301 71.28 148.581 70.92C148.881 70.54 149.141 70.35 149.361 70.35C149.521 70.35 149.721 70.41 149.961 70.53C150.221 70.65 150.471 70.82 150.711 71.04C150.931 71.3 151.131 71.65 151.311 72.09C151.511 72.51 151.551 73.07 151.431 73.77C151.411 74.09 151.361 74.48 151.281 74.94C151.201 75.38 151.121 75.82 151.041 76.26C150.961 76.7 150.881 77.07 150.801 77.37C150.641 78.27 150.461 79.13 150.261 79.95C150.081 80.75 149.911 81.49 149.751 82.17C149.591 82.85 149.461 83.45 149.361 83.97C149.261 84.47 149.191 84.88 149.151 85.2C149.131 85.52 149.171 85.73 149.271 85.83C149.331 85.85 149.411 85.83 149.511 85.77C149.631 85.69 149.721 85.61 149.781 85.53C149.901 85.37 150.011 85.21 150.111 85.05C150.211 84.89 150.341 84.69 150.501 84.45C150.821 84.01 151.151 83.53 151.491 83.01C151.851 82.47 152.271 81.81 152.751 81.03C153.251 80.23 153.841 79.25 154.521 78.09C155.201 76.91 156.031 75.45 157.011 73.71C157.471 73.01 157.911 72.31 158.331 71.61C158.751 70.91 159.131 70.37 159.471 69.99C159.771 69.67 160.141 69.56 160.581 69.66C161.041 69.76 161.461 70.01 161.841 70.41C162.221 70.81 162.431 71.3 162.471 71.88C162.491 72.16 162.431 72.66 162.291 73.38C162.171 74.08 162.001 74.87 161.781 75.75C161.561 76.63 161.311 77.49 161.031 78.33C160.971 78.67 160.871 79.12 160.731 79.68C160.591 80.24 160.441 80.81 160.281 81.39C160.121 81.97 159.971 82.49 159.831 82.95C159.691 83.63 159.571 84.17 159.471 84.57C159.391 84.97 159.351 85.43 159.351 85.95C159.171 86.27 159.051 86.73 158.991 87.33C158.931 87.93 158.901 88.55 158.901 89.19C158.821 89.97 158.651 90.52 158.391 90.84C158.151 91.16 157.991 91.31 157.911 91.29C157.751 91.23 157.621 91.28 157.521 91.44ZM164.976 89.76C164.556 89.84 164.236 89.82 164.016 89.7C163.816 89.56 163.606 89.39 163.386 89.19C163.066 89.03 162.776 88.81 162.516 88.53C162.256 88.23 162.056 87.92 161.916 87.6C161.776 87.28 161.716 87.03 161.736 86.85C161.796 86.15 161.956 85.39 162.216 84.57C162.496 83.75 162.846 82.95 163.266 82.17C163.706 81.39 164.196 80.7 164.736 80.1C165.296 79.48 165.896 79.03 166.536 78.75C166.936 78.59 167.366 78.53 167.826 78.57C168.286 78.61 168.596 78.8 168.756 79.14C169.056 79.72 168.986 80.09 168.546 80.25C168.486 80.25 168.416 80.28 168.336 80.34C168.256 80.38 168.216 80.44 168.216 80.52C168.296 80.56 168.516 80.57 168.876 80.55C169.236 80.51 169.596 80.45 169.956 80.37C170.336 80.27 170.586 80.17 170.706 80.07C170.826 80.01 170.916 79.98 170.976 79.98C171.036 79.98 171.186 80 171.426 80.04C171.766 80.14 171.936 80.26 171.936 80.4C171.936 80.48 171.966 80.61 172.026 80.79C172.086 80.95 172.156 81.03 172.236 81.03C172.376 81.05 172.406 81.19 172.326 81.45C172.266 81.71 172.036 81.98 171.636 82.26C171.256 82.5 171.016 82.66 170.916 82.74C170.836 82.8 170.826 82.94 170.886 83.16C171.046 83.54 171.036 84 170.856 84.54C170.676 85.08 170.376 85.64 169.956 86.22C169.536 86.8 169.036 87.35 168.456 87.87C167.896 88.37 167.306 88.8 166.686 89.16C166.086 89.5 165.516 89.7 164.976 89.76ZM165.066 87.24C165.146 87.24 165.286 87.2 165.486 87.12C165.686 87.02 165.846 86.94 165.966 86.88C166.046 86.8 166.146 86.71 166.266 86.61C166.406 86.49 166.516 86.42 166.596 86.4C166.676 86.4 166.726 86.37 166.746 86.31C166.766 86.23 166.836 86.08 166.956 85.86C167.076 85.62 167.316 85.27 167.676 84.81C168.076 84.37 168.336 84.02 168.456 83.76C168.576 83.48 168.586 83.18 168.486 82.86C168.466 82.78 168.406 82.73 168.306 82.71C168.226 82.69 168.116 82.64 167.976 82.56C167.776 82.56 167.636 82.61 167.556 82.71C167.496 82.79 167.356 82.74 167.136 82.56L166.656 81.96L166.146 82.47C165.826 82.79 165.536 83.19 165.276 83.67C165.036 84.15 164.846 84.64 164.706 85.14C164.566 85.64 164.476 86.08 164.436 86.46C164.416 86.76 164.466 86.96 164.586 87.06C164.706 87.16 164.866 87.22 165.066 87.24ZM183.285 89.28C182.845 89.24 182.475 89.15 182.175 89.01C181.895 88.85 181.665 88.54 181.485 88.08C181.405 87.76 181.365 87.43 181.365 87.09C181.385 86.73 181.415 86.39 181.455 86.07C181.495 85.73 181.515 85.44 181.515 85.2C181.515 85.16 181.515 85.08 181.515 84.96C181.515 84.84 181.515 84.73 181.515 84.63C181.475 84.33 181.395 84.15 181.275 84.09C181.175 84.01 180.995 84.02 180.735 84.12C180.315 84.32 179.855 84.59 179.355 84.93C178.875 85.25 178.365 85.63 177.825 86.07C177.305 86.49 176.765 86.94 176.205 87.42C175.765 87.9 175.435 88.29 175.215 88.59C175.015 88.89 174.805 89.04 174.585 89.04C174.425 89.12 174.255 89.1 174.075 88.98C173.895 88.86 173.705 88.72 173.505 88.56C173.365 88.4 173.195 88.2 172.995 87.96C172.815 87.7 172.705 87.53 172.665 87.45C172.665 87.13 172.685 86.84 172.725 86.58C172.785 86.32 172.865 86.05 172.965 85.77C173.085 85.49 173.225 85.17 173.385 84.81C173.465 84.67 173.535 84.53 173.595 84.39C173.675 84.23 173.765 84.06 173.865 83.88C173.945 83.6 174.055 83.28 174.195 82.92C174.355 82.56 174.505 82.22 174.645 81.9C174.865 81.38 175.035 80.93 175.155 80.55C175.275 80.17 175.375 79.76 175.455 79.32C175.435 79.28 175.445 79.22 175.485 79.14C175.525 79.06 175.585 79.01 175.665 78.99H175.695H175.725C175.865 78.89 176.125 78.88 176.505 78.96C176.905 79.02 177.205 79.13 177.405 79.29C177.825 79.65 178.025 80.12 178.005 80.7C177.985 81.28 177.685 82.04 177.105 82.98C176.965 83.3 176.815 83.6 176.655 83.88C176.515 84.14 176.445 84.32 176.445 84.42C176.445 84.42 176.525 84.36 176.685 84.24C176.845 84.12 177.035 83.98 177.255 83.82C177.475 83.64 177.665 83.5 177.825 83.4C177.925 83.3 178.145 83.12 178.485 82.86C178.825 82.58 179.195 82.29 179.595 81.99C179.995 81.69 180.315 81.46 180.555 81.3C180.775 81.14 181.055 80.98 181.395 80.82C181.735 80.64 181.945 80.55 182.025 80.55C182.225 80.55 182.465 80.62 182.745 80.76C183.045 80.9 183.315 81.07 183.555 81.27C183.815 81.45 183.965 81.62 184.005 81.78C184.005 81.86 183.995 81.97 183.975 82.11C183.955 82.23 183.945 82.34 183.945 82.44C183.925 82.76 183.915 83.15 183.915 83.61C183.935 84.05 183.945 84.5 183.945 84.96C183.945 85.4 183.905 85.8 183.825 86.16C183.825 86.16 183.835 86.18 183.855 86.22C183.875 86.24 183.895 86.28 183.915 86.34C183.895 86.36 183.885 86.4 183.885 86.46C183.905 86.5 183.915 86.52 183.915 86.52C183.955 86.66 183.995 86.8 184.035 86.94C184.095 87.08 184.165 87.24 184.245 87.42C184.325 87.58 184.415 87.79 184.515 88.05C184.495 88.31 184.345 88.57 184.065 88.83C183.805 89.07 183.545 89.22 183.285 89.28ZM190.665 90.18C190.385 90.1 190.105 89.96 189.825 89.76C189.545 89.56 189.255 89.33 188.955 89.07C188.715 88.75 188.545 88.46 188.445 88.2C188.345 87.92 188.285 87.6 188.265 87.24C188.265 86.86 188.265 86.38 188.265 85.8C188.265 85.56 188.305 85.22 188.385 84.78C188.485 84.34 188.585 83.88 188.685 83.4C188.805 82.92 188.915 82.5 189.015 82.14C189.115 81.76 189.175 81.51 189.195 81.39C189.255 81.13 189.155 80.98 188.895 80.94C188.635 80.9 188.345 80.89 188.025 80.91C187.725 80.91 187.525 80.88 187.425 80.82C187.345 80.8 187.305 80.7 187.305 80.52C187.305 80.32 187.305 80.22 187.305 80.22C187.305 80.14 187.265 80.09 187.185 80.07C187.105 80.03 187.035 79.96 186.975 79.86C186.935 79.78 186.985 79.63 187.125 79.41C187.265 79.19 187.445 79.06 187.665 79.02C187.845 78.98 188.115 78.95 188.475 78.93C188.835 78.89 189.195 78.82 189.555 78.72C189.935 78.6 190.225 78.42 190.425 78.18C190.605 77.74 190.805 77.27 191.025 76.77C191.245 76.25 191.455 75.8 191.655 75.42C191.855 75.02 191.995 74.77 192.075 74.67C192.415 74.49 192.765 74.42 193.125 74.46C193.485 74.48 193.765 74.65 193.965 74.97C194.065 75.11 194.145 75.21 194.205 75.27C194.285 75.33 194.315 75.42 194.295 75.54C194.295 75.66 194.215 75.88 194.055 76.2C193.915 76.5 193.675 76.97 193.335 77.61C193.235 77.81 193.145 77.99 193.065 78.15C192.985 78.29 192.945 78.36 192.945 78.36C193.025 78.38 193.145 78.39 193.305 78.39C193.465 78.39 193.665 78.38 193.905 78.36C194.125 78.32 194.365 78.29 194.625 78.27C194.885 78.23 195.115 78.23 195.315 78.27C195.775 78.27 196.115 78.4 196.335 78.66C196.555 78.92 196.675 79.25 196.695 79.65C196.735 79.87 196.655 80.06 196.455 80.22C196.255 80.38 195.885 80.46 195.345 80.46C195.165 80.46 194.905 80.47 194.565 80.49C194.225 80.51 193.875 80.53 193.515 80.55C193.155 80.57 192.845 80.6 192.585 80.64C192.345 80.66 192.225 80.69 192.225 80.73C192.165 80.77 192.065 80.93 191.925 81.21C191.805 81.47 191.675 81.79 191.535 82.17C191.415 82.55 191.305 82.91 191.205 83.25C191.065 83.93 190.965 84.59 190.905 85.23C190.845 85.87 190.835 86.43 190.875 86.91C190.935 87.37 191.055 87.7 191.235 87.9C191.415 88.08 191.685 88.08 192.045 87.9C192.425 87.7 192.775 87.47 193.095 87.21C193.455 86.91 193.765 86.82 194.025 86.94C194.285 87.04 194.445 87.26 194.505 87.6C194.585 87.92 194.495 88.27 194.235 88.65C193.995 89.03 193.655 89.35 193.215 89.61C192.775 89.87 192.325 90.05 191.865 90.15C191.405 90.27 191.005 90.28 190.665 90.18ZM207.497 89.79C207.117 89.89 206.717 89.96 206.297 90C205.897 90.06 205.547 89.94 205.247 89.64C205.067 89.36 204.907 89.11 204.767 88.89C204.627 88.67 204.537 88.28 204.497 87.72C204.477 87.34 204.497 86.93 204.557 86.49C204.637 86.03 204.667 85.7 204.647 85.5C204.807 84.76 204.847 84.23 204.767 83.91C204.707 83.59 204.627 83.43 204.527 83.43C204.307 83.39 203.957 83.55 203.477 83.91C203.017 84.27 202.467 84.78 201.827 85.44C201.207 86.08 200.537 86.81 199.817 87.63C199.437 88.15 199.157 88.54 198.977 88.8C198.817 89.04 198.697 89.16 198.617 89.16C198.257 89.16 197.927 89.1 197.627 88.98C197.327 88.86 197.087 88.69 196.907 88.47C196.727 88.25 196.617 88.02 196.577 87.78C196.577 87.7 196.627 87.49 196.727 87.15C196.827 86.79 196.947 86.38 197.087 85.92C197.227 85.46 197.357 85.03 197.477 84.63C197.617 84.23 197.717 83.95 197.777 83.79C197.957 83.27 198.167 82.64 198.407 81.9C198.667 81.14 198.897 80.47 199.097 79.89C199.177 79.63 199.317 79.26 199.517 78.78C199.717 78.28 199.917 77.78 200.117 77.28C200.317 76.78 200.457 76.41 200.537 76.17C200.597 76.01 200.707 75.73 200.867 75.33C201.027 74.91 201.197 74.45 201.377 73.95C201.577 73.45 201.757 72.99 201.917 72.57C202.097 72.13 202.217 71.81 202.277 71.61C202.257 71.43 202.267 71.27 202.307 71.13C202.367 70.97 202.427 70.85 202.487 70.77C202.567 70.77 202.657 70.77 202.757 70.77C202.857 70.75 202.907 70.74 202.907 70.74C202.907 70.7 203.037 70.74 203.297 70.86C203.577 70.98 203.847 71.13 204.107 71.31C204.387 71.47 204.527 71.61 204.527 71.73C204.627 71.99 204.637 72.33 204.557 72.75C204.477 73.15 204.267 73.76 203.927 74.58C203.707 74.9 203.487 75.38 203.267 76.02C203.067 76.66 202.867 77.2 202.667 77.64C202.587 77.78 202.467 78.03 202.307 78.39C202.167 78.73 201.997 79.14 201.797 79.62C201.617 80.08 201.437 80.57 201.257 81.09C201.077 81.61 200.917 82.12 200.777 82.62C200.577 83.1 200.507 83.42 200.567 83.58C200.627 83.74 200.867 83.56 201.287 83.04C201.847 82.44 202.367 81.9 202.847 81.42C203.347 80.94 203.807 80.56 204.227 80.28C204.667 79.98 205.057 79.85 205.397 79.89C205.577 79.93 205.807 80.06 206.087 80.28C206.387 80.48 206.667 80.72 206.927 81C207.207 81.26 207.387 81.51 207.467 81.75C207.547 82.03 207.597 82.3 207.617 82.56C207.657 82.82 207.667 83.19 207.647 83.67C207.627 84.13 207.577 84.82 207.497 85.74C207.377 86.42 207.297 86.91 207.257 87.21C207.217 87.49 207.227 87.69 207.287 87.81C207.367 87.93 207.487 88.06 207.647 88.2C207.947 88.44 208.067 88.73 208.007 89.07C207.947 89.39 207.777 89.63 207.497 89.79Z" fill="#1D4841"/>
</svg>
