<svg width="62" height="41" viewBox="0 0 62 41" fill="none" xmlns="http://www.w3.org/2000/svg">
<rect width="62" height="41" rx="5" fill="#1434CB"/>
<path d="M38.2976 12.4959C34.8736 12.4959 31.8138 14.2563 31.8138 17.5088C31.8138 21.2387 37.2405 21.4964 37.2405 23.3702C37.2405 24.1592 36.3289 24.8654 34.7721 24.8654C32.5626 24.8654 30.9112 23.8786 30.9112 23.8786L30.2046 27.1607C30.2046 27.1607 32.107 27.9943 34.6327 27.9943C38.3761 27.9943 41.3218 26.1474 41.3218 22.8394C41.3218 18.898 35.8725 18.648 35.8725 16.9088C35.8725 16.2907 36.6208 15.6135 38.1732 15.6135C39.9248 15.6135 41.3538 16.3312 41.3538 16.3312L42.0454 13.1613C42.0454 13.1613 40.4904 12.4959 38.2976 12.4959ZM6.97158 12.7352L6.88867 13.2136C6.88867 13.2136 8.32914 13.4751 9.62652 13.9968C11.297 14.5949 11.416 14.9432 11.6973 16.0247L14.763 27.7476H18.8726L25.2038 12.7352H21.1036L17.0355 22.9422L15.3754 14.2902C15.2232 13.3 14.452 12.7352 13.5081 12.7352H6.97158ZM26.8525 12.7352L23.6361 27.7476H27.5459L30.7511 12.7352H26.8525ZM48.6592 12.7352C47.7163 12.7352 47.2168 13.2358 46.8503 14.1108L41.1221 27.7476H45.2222L46.0155 25.4748H51.0107L51.4931 27.7476H55.1109L51.9547 12.7352H48.6592ZM49.1924 16.791L50.4078 22.4244H47.1517L49.1924 16.791Z" fill="white"/>
</svg>
