<svg width="61" height="61" viewBox="0 0 61 61" fill="none" xmlns="http://www.w3.org/2000/svg">
<circle cx="30.5" cy="30.5" r="30" fill="#21844A" stroke="#E1E1E1"/>
<path fill-rule="evenodd" clip-rule="evenodd" d="M27.6213 27.4981C27.6213 29.8254 28.7964 32.3239 31.3975 32.3239C33.3256 32.3239 35.265 30.818 35.265 27.4639C35.265 24.5205 33.7363 22.5354 31.466 22.5354C29.595 22.5354 27.6213 23.836 27.6213 27.4981ZM32.3673 18.2344C37.0105 18.2344 40.1364 21.9193 40.1364 27.3954C40.1364 32.7916 36.8394 36.5564 32.1391 36.5564C29.8916 36.5564 28.4541 35.5981 27.7012 34.9022C27.7012 35.0619 27.7126 35.2559 27.7126 35.4498V42.7627H22.8982V23.2769C22.8982 22.9917 22.8069 22.9005 22.5217 22.9005H20.8789V18.6337H24.9175C26.7771 18.6337 27.2563 19.5806 27.3475 20.3107C28.1005 19.4665 29.6634 18.2344 32.3673 18.2344Z" fill="white"/>
</svg>
